<svg height="64" viewBox="0 0 148 64" width="148" xmlns="http://www.w3.org/2000/svg"><g fill="none" fill-rule="evenodd" transform="translate(-1 -3)"><path d="m0 0h150v70h-150z" fill="#62c6bd" fill-opacity=".1" opacity="0"/><path d="m1.29617144 14.2204836c.43994359 1.8407135 1.80902477 2.7891624 4.10586706 2.7891624h56.7609434c2.7363768 0 4.2594791-1.4505993 4.2594791-4.2455269v-4.55636965c0-2.79492762-1.5231023-4.24552694-4.2594791-4.24552694h-56.7609434c-2.29684229 0-3.66592347.94844891-4.10586706 2.78916248z" fill="#ff9419"/><path d="m144.444349 52.990354c2.736377 0 4.25948 1.4505993 4.25948 4.2455269v4.5563697c0 2.7949276-1.523103 4.2455269-4.25948 4.2455269h-63.5276826c-2.8405206 0-4.2594791-1.4505993-4.2594791-4.2455269v-4.5563697c0-2.7949276 1.4189585-4.2455269 4.2594791-4.2455269z" fill="#42403e"/><path d="m114.031773 28.4523773c2.73898 0 4.262083 1.4505993 4.262083 4.2455269v4.5563696c0 2.7949277-1.523103 4.2428702-4.262083 4.2428702h-33.0812599c-2.8405206 0-4.2620827-1.4479425-4.2620827-4.2428702v-4.5563696c0-2.7949276 1.4215621-4.2455269 4.2620827-4.2455269z" fill="#ff9419"/><path d="m62.2358825 28.5427076c2.7389805 0 4.2620827 1.4479426 4.2620827 4.2428702v4.5563696c0 2.7949277-1.5231022 4.2428702-4.2620827 4.2428702h-12.786248c-2.8405206 0-4.2620827-1.4479425-4.2620827-4.2428702v-4.5563696c0-2.7949276 1.4215621-4.2428702 4.2620827-4.2428702z" fill="#42403e"/></g></svg>